<mxfile host="app.diagrams.net" modified="2022-06-29T16:10:30.854Z" agent="5.0 (Windows NT 10.0; Win64; x64) AppleWebKit/537.36 (KHTML, like Gecko) Chrome/102.0.0.0 Safari/537.36" etag="gass7pgOY7ySpDnhROk-" version="20.0.4" type="github">
  <diagram id="Xtzwa6VVvoEg-6TvjeYF" name="Page-1">
    <mxGraphModel dx="1038" dy="617" grid="1" gridSize="10" guides="1" tooltips="1" connect="1" arrows="1" fold="1" page="1" pageScale="1" pageWidth="827" pageHeight="1169" math="0" shadow="0">
      <root>
        <mxCell id="0" />
        <mxCell id="1" parent="0" />
        <mxCell id="zvh0BNXRaEqvuYk_ANei-2" value="Game" style="swimlane;fontStyle=1;align=center;verticalAlign=top;childLayout=stackLayout;horizontal=1;startSize=26;horizontalStack=0;resizeParent=1;resizeParentMax=0;resizeLast=0;collapsible=1;marginBottom=0;" parent="1" vertex="1">
          <mxGeometry x="320" y="30" width="160" height="86" as="geometry" />
        </mxCell>
        <mxCell id="zvh0BNXRaEqvuYk_ANei-3" value="+ field: type" style="text;strokeColor=none;fillColor=none;align=left;verticalAlign=top;spacingLeft=4;spacingRight=4;overflow=hidden;rotatable=0;points=[[0,0.5],[1,0.5]];portConstraint=eastwest;" parent="zvh0BNXRaEqvuYk_ANei-2" vertex="1">
          <mxGeometry y="26" width="160" height="26" as="geometry" />
        </mxCell>
        <mxCell id="zvh0BNXRaEqvuYk_ANei-4" value="" style="line;strokeWidth=1;fillColor=none;align=left;verticalAlign=middle;spacingTop=-1;spacingLeft=3;spacingRight=3;rotatable=0;labelPosition=right;points=[];portConstraint=eastwest;" parent="zvh0BNXRaEqvuYk_ANei-2" vertex="1">
          <mxGeometry y="52" width="160" height="8" as="geometry" />
        </mxCell>
        <mxCell id="zvh0BNXRaEqvuYk_ANei-5" value="+ method(type): type" style="text;strokeColor=none;fillColor=none;align=left;verticalAlign=top;spacingLeft=4;spacingRight=4;overflow=hidden;rotatable=0;points=[[0,0.5],[1,0.5]];portConstraint=eastwest;" parent="zvh0BNXRaEqvuYk_ANei-2" vertex="1">
          <mxGeometry y="60" width="160" height="26" as="geometry" />
        </mxCell>
        <mxCell id="zvh0BNXRaEqvuYk_ANei-6" value="Terminal" style="swimlane;fontStyle=1;align=center;verticalAlign=top;childLayout=stackLayout;horizontal=1;startSize=26;horizontalStack=0;resizeParent=1;resizeParentMax=0;resizeLast=0;collapsible=1;marginBottom=0;" parent="1" vertex="1">
          <mxGeometry x="80" y="730" width="160" height="86" as="geometry" />
        </mxCell>
        <mxCell id="zvh0BNXRaEqvuYk_ANei-7" value="+ field: type" style="text;strokeColor=none;fillColor=none;align=left;verticalAlign=top;spacingLeft=4;spacingRight=4;overflow=hidden;rotatable=0;points=[[0,0.5],[1,0.5]];portConstraint=eastwest;" parent="zvh0BNXRaEqvuYk_ANei-6" vertex="1">
          <mxGeometry y="26" width="160" height="26" as="geometry" />
        </mxCell>
        <mxCell id="zvh0BNXRaEqvuYk_ANei-8" value="" style="line;strokeWidth=1;fillColor=none;align=left;verticalAlign=middle;spacingTop=-1;spacingLeft=3;spacingRight=3;rotatable=0;labelPosition=right;points=[];portConstraint=eastwest;" parent="zvh0BNXRaEqvuYk_ANei-6" vertex="1">
          <mxGeometry y="52" width="160" height="8" as="geometry" />
        </mxCell>
        <mxCell id="zvh0BNXRaEqvuYk_ANei-9" value="+ method(type): type" style="text;strokeColor=none;fillColor=none;align=left;verticalAlign=top;spacingLeft=4;spacingRight=4;overflow=hidden;rotatable=0;points=[[0,0.5],[1,0.5]];portConstraint=eastwest;" parent="zvh0BNXRaEqvuYk_ANei-6" vertex="1">
          <mxGeometry y="60" width="160" height="26" as="geometry" />
        </mxCell>
        <mxCell id="zvh0BNXRaEqvuYk_ANei-10" value="GUI" style="swimlane;fontStyle=1;align=center;verticalAlign=top;childLayout=stackLayout;horizontal=1;startSize=26;horizontalStack=0;resizeParent=1;resizeParentMax=0;resizeLast=0;collapsible=1;marginBottom=0;" parent="1" vertex="1">
          <mxGeometry x="320" y="590" width="160" height="86" as="geometry" />
        </mxCell>
        <mxCell id="zvh0BNXRaEqvuYk_ANei-11" value="+ field: type" style="text;strokeColor=none;fillColor=none;align=left;verticalAlign=top;spacingLeft=4;spacingRight=4;overflow=hidden;rotatable=0;points=[[0,0.5],[1,0.5]];portConstraint=eastwest;" parent="zvh0BNXRaEqvuYk_ANei-10" vertex="1">
          <mxGeometry y="26" width="160" height="26" as="geometry" />
        </mxCell>
        <mxCell id="zvh0BNXRaEqvuYk_ANei-12" value="" style="line;strokeWidth=1;fillColor=none;align=left;verticalAlign=middle;spacingTop=-1;spacingLeft=3;spacingRight=3;rotatable=0;labelPosition=right;points=[];portConstraint=eastwest;" parent="zvh0BNXRaEqvuYk_ANei-10" vertex="1">
          <mxGeometry y="52" width="160" height="8" as="geometry" />
        </mxCell>
        <mxCell id="zvh0BNXRaEqvuYk_ANei-13" value="+ method(type): type" style="text;strokeColor=none;fillColor=none;align=left;verticalAlign=top;spacingLeft=4;spacingRight=4;overflow=hidden;rotatable=0;points=[[0,0.5],[1,0.5]];portConstraint=eastwest;" parent="zvh0BNXRaEqvuYk_ANei-10" vertex="1">
          <mxGeometry y="60" width="160" height="26" as="geometry" />
        </mxCell>
        <mxCell id="zvh0BNXRaEqvuYk_ANei-19" value="UI" style="swimlane;fontStyle=1;align=center;verticalAlign=top;childLayout=stackLayout;horizontal=1;startSize=26;horizontalStack=0;resizeParent=1;resizeParentMax=0;resizeLast=0;collapsible=1;marginBottom=0;" parent="1" vertex="1">
          <mxGeometry x="80" y="590" width="160" height="86" as="geometry" />
        </mxCell>
        <mxCell id="zvh0BNXRaEqvuYk_ANei-20" value="+ field: type" style="text;strokeColor=none;fillColor=none;align=left;verticalAlign=top;spacingLeft=4;spacingRight=4;overflow=hidden;rotatable=0;points=[[0,0.5],[1,0.5]];portConstraint=eastwest;" parent="zvh0BNXRaEqvuYk_ANei-19" vertex="1">
          <mxGeometry y="26" width="160" height="26" as="geometry" />
        </mxCell>
        <mxCell id="zvh0BNXRaEqvuYk_ANei-21" value="" style="line;strokeWidth=1;fillColor=none;align=left;verticalAlign=middle;spacingTop=-1;spacingLeft=3;spacingRight=3;rotatable=0;labelPosition=right;points=[];portConstraint=eastwest;" parent="zvh0BNXRaEqvuYk_ANei-19" vertex="1">
          <mxGeometry y="52" width="160" height="8" as="geometry" />
        </mxCell>
        <mxCell id="zvh0BNXRaEqvuYk_ANei-22" value="+ method(type): type" style="text;strokeColor=none;fillColor=none;align=left;verticalAlign=top;spacingLeft=4;spacingRight=4;overflow=hidden;rotatable=0;points=[[0,0.5],[1,0.5]];portConstraint=eastwest;" parent="zvh0BNXRaEqvuYk_ANei-19" vertex="1">
          <mxGeometry y="60" width="160" height="26" as="geometry" />
        </mxCell>
        <mxCell id="zvh0BNXRaEqvuYk_ANei-28" value="AI" style="swimlane;fontStyle=1;align=center;verticalAlign=top;childLayout=stackLayout;horizontal=1;startSize=26;horizontalStack=0;resizeParent=1;resizeParentMax=0;resizeLast=0;collapsible=1;marginBottom=0;" parent="1" vertex="1">
          <mxGeometry x="80" y="190" width="160" height="86" as="geometry" />
        </mxCell>
        <mxCell id="zvh0BNXRaEqvuYk_ANei-29" value="+ field: type" style="text;strokeColor=none;fillColor=none;align=left;verticalAlign=top;spacingLeft=4;spacingRight=4;overflow=hidden;rotatable=0;points=[[0,0.5],[1,0.5]];portConstraint=eastwest;" parent="zvh0BNXRaEqvuYk_ANei-28" vertex="1">
          <mxGeometry y="26" width="160" height="26" as="geometry" />
        </mxCell>
        <mxCell id="zvh0BNXRaEqvuYk_ANei-30" value="" style="line;strokeWidth=1;fillColor=none;align=left;verticalAlign=middle;spacingTop=-1;spacingLeft=3;spacingRight=3;rotatable=0;labelPosition=right;points=[];portConstraint=eastwest;" parent="zvh0BNXRaEqvuYk_ANei-28" vertex="1">
          <mxGeometry y="52" width="160" height="8" as="geometry" />
        </mxCell>
        <mxCell id="zvh0BNXRaEqvuYk_ANei-31" value="+ method(type): type" style="text;strokeColor=none;fillColor=none;align=left;verticalAlign=top;spacingLeft=4;spacingRight=4;overflow=hidden;rotatable=0;points=[[0,0.5],[1,0.5]];portConstraint=eastwest;" parent="zvh0BNXRaEqvuYk_ANei-28" vertex="1">
          <mxGeometry y="60" width="160" height="26" as="geometry" />
        </mxCell>
        <mxCell id="zvh0BNXRaEqvuYk_ANei-32" value="" style="endArrow=diamondThin;endFill=1;endSize=24;html=1;rounded=0;exitX=0.5;exitY=0;exitDx=0;exitDy=0;" parent="1" source="a4NBhfSJMRjFoHTR3aRK-1" target="zvh0BNXRaEqvuYk_ANei-2" edge="1">
          <mxGeometry width="160" relative="1" as="geometry">
            <mxPoint x="290" y="240" as="sourcePoint" />
            <mxPoint x="450" y="240" as="targetPoint" />
            <Array as="points">
              <mxPoint x="400" y="193" />
            </Array>
          </mxGeometry>
        </mxCell>
        <mxCell id="a4NBhfSJMRjFoHTR3aRK-1" value="Player" style="swimlane;fontStyle=1;align=center;verticalAlign=top;childLayout=stackLayout;horizontal=1;startSize=26;horizontalStack=0;resizeParent=1;resizeParentMax=0;resizeLast=0;collapsible=1;marginBottom=0;" parent="1" vertex="1">
          <mxGeometry x="320" y="190" width="160" height="86" as="geometry" />
        </mxCell>
        <mxCell id="a4NBhfSJMRjFoHTR3aRK-2" value="+ field: type" style="text;strokeColor=none;fillColor=none;align=left;verticalAlign=top;spacingLeft=4;spacingRight=4;overflow=hidden;rotatable=0;points=[[0,0.5],[1,0.5]];portConstraint=eastwest;" parent="a4NBhfSJMRjFoHTR3aRK-1" vertex="1">
          <mxGeometry y="26" width="160" height="26" as="geometry" />
        </mxCell>
        <mxCell id="a4NBhfSJMRjFoHTR3aRK-3" value="" style="line;strokeWidth=1;fillColor=none;align=left;verticalAlign=middle;spacingTop=-1;spacingLeft=3;spacingRight=3;rotatable=0;labelPosition=right;points=[];portConstraint=eastwest;" parent="a4NBhfSJMRjFoHTR3aRK-1" vertex="1">
          <mxGeometry y="52" width="160" height="8" as="geometry" />
        </mxCell>
        <mxCell id="a4NBhfSJMRjFoHTR3aRK-4" value="+ method(type): type" style="text;strokeColor=none;fillColor=none;align=left;verticalAlign=top;spacingLeft=4;spacingRight=4;overflow=hidden;rotatable=0;points=[[0,0.5],[1,0.5]];portConstraint=eastwest;" parent="a4NBhfSJMRjFoHTR3aRK-1" vertex="1">
          <mxGeometry y="60" width="160" height="26" as="geometry" />
        </mxCell>
        <mxCell id="a4NBhfSJMRjFoHTR3aRK-5" value="Human" style="swimlane;fontStyle=1;align=center;verticalAlign=top;childLayout=stackLayout;horizontal=1;startSize=26;horizontalStack=0;resizeParent=1;resizeParentMax=0;resizeLast=0;collapsible=1;marginBottom=0;" parent="1" vertex="1">
          <mxGeometry x="320" y="350" width="160" height="86" as="geometry" />
        </mxCell>
        <mxCell id="a4NBhfSJMRjFoHTR3aRK-6" value="+ field: type" style="text;strokeColor=none;fillColor=none;align=left;verticalAlign=top;spacingLeft=4;spacingRight=4;overflow=hidden;rotatable=0;points=[[0,0.5],[1,0.5]];portConstraint=eastwest;" parent="a4NBhfSJMRjFoHTR3aRK-5" vertex="1">
          <mxGeometry y="26" width="160" height="26" as="geometry" />
        </mxCell>
        <mxCell id="a4NBhfSJMRjFoHTR3aRK-7" value="" style="line;strokeWidth=1;fillColor=none;align=left;verticalAlign=middle;spacingTop=-1;spacingLeft=3;spacingRight=3;rotatable=0;labelPosition=right;points=[];portConstraint=eastwest;" parent="a4NBhfSJMRjFoHTR3aRK-5" vertex="1">
          <mxGeometry y="52" width="160" height="8" as="geometry" />
        </mxCell>
        <mxCell id="a4NBhfSJMRjFoHTR3aRK-8" value="+ method(type): type" style="text;strokeColor=none;fillColor=none;align=left;verticalAlign=top;spacingLeft=4;spacingRight=4;overflow=hidden;rotatable=0;points=[[0,0.5],[1,0.5]];portConstraint=eastwest;" parent="a4NBhfSJMRjFoHTR3aRK-5" vertex="1">
          <mxGeometry y="60" width="160" height="26" as="geometry" />
        </mxCell>
        <mxCell id="a4NBhfSJMRjFoHTR3aRK-9" value="Networking" style="swimlane;fontStyle=1;align=center;verticalAlign=top;childLayout=stackLayout;horizontal=1;startSize=26;horizontalStack=0;resizeParent=1;resizeParentMax=0;resizeLast=0;collapsible=1;marginBottom=0;" parent="1" vertex="1">
          <mxGeometry x="320" y="480" width="160" height="86" as="geometry" />
        </mxCell>
        <mxCell id="a4NBhfSJMRjFoHTR3aRK-10" value="+ field: type" style="text;strokeColor=none;fillColor=none;align=left;verticalAlign=top;spacingLeft=4;spacingRight=4;overflow=hidden;rotatable=0;points=[[0,0.5],[1,0.5]];portConstraint=eastwest;" parent="a4NBhfSJMRjFoHTR3aRK-9" vertex="1">
          <mxGeometry y="26" width="160" height="26" as="geometry" />
        </mxCell>
        <mxCell id="a4NBhfSJMRjFoHTR3aRK-11" value="" style="line;strokeWidth=1;fillColor=none;align=left;verticalAlign=middle;spacingTop=-1;spacingLeft=3;spacingRight=3;rotatable=0;labelPosition=right;points=[];portConstraint=eastwest;" parent="a4NBhfSJMRjFoHTR3aRK-9" vertex="1">
          <mxGeometry y="52" width="160" height="8" as="geometry" />
        </mxCell>
        <mxCell id="a4NBhfSJMRjFoHTR3aRK-12" value="+ method(type): type" style="text;strokeColor=none;fillColor=none;align=left;verticalAlign=top;spacingLeft=4;spacingRight=4;overflow=hidden;rotatable=0;points=[[0,0.5],[1,0.5]];portConstraint=eastwest;" parent="a4NBhfSJMRjFoHTR3aRK-9" vertex="1">
          <mxGeometry y="60" width="160" height="26" as="geometry" />
        </mxCell>
        <mxCell id="a4NBhfSJMRjFoHTR3aRK-17" value="Local" style="swimlane;fontStyle=1;align=center;verticalAlign=top;childLayout=stackLayout;horizontal=1;startSize=26;horizontalStack=0;resizeParent=1;resizeParentMax=0;resizeLast=0;collapsible=1;marginBottom=0;" parent="1" vertex="1">
          <mxGeometry x="80" y="350" width="160" height="86" as="geometry" />
        </mxCell>
        <mxCell id="a4NBhfSJMRjFoHTR3aRK-18" value="+ field: type" style="text;strokeColor=none;fillColor=none;align=left;verticalAlign=top;spacingLeft=4;spacingRight=4;overflow=hidden;rotatable=0;points=[[0,0.5],[1,0.5]];portConstraint=eastwest;" parent="a4NBhfSJMRjFoHTR3aRK-17" vertex="1">
          <mxGeometry y="26" width="160" height="26" as="geometry" />
        </mxCell>
        <mxCell id="a4NBhfSJMRjFoHTR3aRK-19" value="" style="line;strokeWidth=1;fillColor=none;align=left;verticalAlign=middle;spacingTop=-1;spacingLeft=3;spacingRight=3;rotatable=0;labelPosition=right;points=[];portConstraint=eastwest;" parent="a4NBhfSJMRjFoHTR3aRK-17" vertex="1">
          <mxGeometry y="52" width="160" height="8" as="geometry" />
        </mxCell>
        <mxCell id="a4NBhfSJMRjFoHTR3aRK-20" value="+ method(type): type" style="text;strokeColor=none;fillColor=none;align=left;verticalAlign=top;spacingLeft=4;spacingRight=4;overflow=hidden;rotatable=0;points=[[0,0.5],[1,0.5]];portConstraint=eastwest;" parent="a4NBhfSJMRjFoHTR3aRK-17" vertex="1">
          <mxGeometry y="60" width="160" height="26" as="geometry" />
        </mxCell>
        <mxCell id="4D1YSKRCDHBC9nBtYqDq-3" value="" style="endArrow=block;endSize=16;endFill=0;html=1;rounded=0;" parent="1" source="zvh0BNXRaEqvuYk_ANei-6" target="zvh0BNXRaEqvuYk_ANei-19" edge="1">
          <mxGeometry width="160" relative="1" as="geometry">
            <mxPoint x="-120" y="565" as="sourcePoint" />
            <mxPoint x="40" y="565" as="targetPoint" />
            <Array as="points" />
          </mxGeometry>
        </mxCell>
        <mxCell id="4D1YSKRCDHBC9nBtYqDq-6" value="" style="endArrow=block;endSize=16;endFill=0;html=1;rounded=0;" parent="1" source="zvh0BNXRaEqvuYk_ANei-28" target="a4NBhfSJMRjFoHTR3aRK-1" edge="1">
          <mxGeometry width="160" relative="1" as="geometry">
            <mxPoint x="190" y="167" as="sourcePoint" />
            <mxPoint x="270" y="50" as="targetPoint" />
            <Array as="points" />
          </mxGeometry>
        </mxCell>
        <mxCell id="4D1YSKRCDHBC9nBtYqDq-7" value="" style="endArrow=block;endSize=16;endFill=0;html=1;rounded=0;" parent="1" source="a4NBhfSJMRjFoHTR3aRK-5" target="a4NBhfSJMRjFoHTR3aRK-1" edge="1">
          <mxGeometry width="160" relative="1" as="geometry">
            <mxPoint x="570" y="393" as="sourcePoint" />
            <mxPoint x="650" y="276" as="targetPoint" />
            <Array as="points" />
          </mxGeometry>
        </mxCell>
        <mxCell id="4D1YSKRCDHBC9nBtYqDq-8" value="" style="endArrow=block;endSize=16;endFill=0;html=1;rounded=0;" parent="1" source="a4NBhfSJMRjFoHTR3aRK-17" target="a4NBhfSJMRjFoHTR3aRK-5" edge="1">
          <mxGeometry width="160" relative="1" as="geometry">
            <mxPoint x="290" y="407" as="sourcePoint" />
            <mxPoint x="370" y="290" as="targetPoint" />
            <Array as="points" />
          </mxGeometry>
        </mxCell>
        <mxCell id="4D1YSKRCDHBC9nBtYqDq-9" value="" style="endArrow=block;endSize=16;endFill=0;html=1;rounded=0;" parent="1" source="a4NBhfSJMRjFoHTR3aRK-9" target="a4NBhfSJMRjFoHTR3aRK-5" edge="1">
          <mxGeometry width="160" relative="1" as="geometry">
            <mxPoint x="410" y="360" as="sourcePoint" />
            <mxPoint x="410" y="286" as="targetPoint" />
            <Array as="points" />
          </mxGeometry>
        </mxCell>
        <mxCell id="4D1YSKRCDHBC9nBtYqDq-10" value="Statistics" style="swimlane;fontStyle=1;align=center;verticalAlign=top;childLayout=stackLayout;horizontal=1;startSize=26;horizontalStack=0;resizeParent=1;resizeParentMax=0;resizeLast=0;collapsible=1;marginBottom=0;" parent="1" vertex="1">
          <mxGeometry x="580" y="350" width="160" height="86" as="geometry" />
        </mxCell>
        <mxCell id="4D1YSKRCDHBC9nBtYqDq-11" value="+ field: type" style="text;strokeColor=none;fillColor=none;align=left;verticalAlign=top;spacingLeft=4;spacingRight=4;overflow=hidden;rotatable=0;points=[[0,0.5],[1,0.5]];portConstraint=eastwest;" parent="4D1YSKRCDHBC9nBtYqDq-10" vertex="1">
          <mxGeometry y="26" width="160" height="26" as="geometry" />
        </mxCell>
        <mxCell id="4D1YSKRCDHBC9nBtYqDq-12" value="" style="line;strokeWidth=1;fillColor=none;align=left;verticalAlign=middle;spacingTop=-1;spacingLeft=3;spacingRight=3;rotatable=0;labelPosition=right;points=[];portConstraint=eastwest;" parent="4D1YSKRCDHBC9nBtYqDq-10" vertex="1">
          <mxGeometry y="52" width="160" height="8" as="geometry" />
        </mxCell>
        <mxCell id="4D1YSKRCDHBC9nBtYqDq-13" value="+ method(type): type" style="text;strokeColor=none;fillColor=none;align=left;verticalAlign=top;spacingLeft=4;spacingRight=4;overflow=hidden;rotatable=0;points=[[0,0.5],[1,0.5]];portConstraint=eastwest;" parent="4D1YSKRCDHBC9nBtYqDq-10" vertex="1">
          <mxGeometry y="60" width="160" height="26" as="geometry" />
        </mxCell>
        <mxCell id="4D1YSKRCDHBC9nBtYqDq-15" value="" style="endArrow=diamondThin;endFill=1;endSize=24;html=1;rounded=0;" parent="1" source="4D1YSKRCDHBC9nBtYqDq-10" target="a4NBhfSJMRjFoHTR3aRK-5" edge="1">
          <mxGeometry width="160" relative="1" as="geometry">
            <mxPoint x="540" y="409" as="sourcePoint" />
            <mxPoint x="540" y="335" as="targetPoint" />
            <Array as="points" />
          </mxGeometry>
        </mxCell>
        <mxCell id="M8xaA3jgXzXwJ5VbGbtO-2" value="" style="endArrow=diamondThin;endFill=1;endSize=24;html=1;rounded=0;" parent="1" source="M8xaA3jgXzXwJ5VbGbtO-3" target="zvh0BNXRaEqvuYk_ANei-2" edge="1">
          <mxGeometry width="160" relative="1" as="geometry">
            <mxPoint x="560" y="73" as="sourcePoint" />
            <mxPoint x="490" y="403" as="targetPoint" />
            <Array as="points" />
          </mxGeometry>
        </mxCell>
        <mxCell id="M8xaA3jgXzXwJ5VbGbtO-3" value="Board" style="swimlane;fontStyle=1;align=center;verticalAlign=top;childLayout=stackLayout;horizontal=1;startSize=26;horizontalStack=0;resizeParent=1;resizeParentMax=0;resizeLast=0;collapsible=1;marginBottom=0;" parent="1" vertex="1">
          <mxGeometry x="580" y="30" width="160" height="86" as="geometry" />
        </mxCell>
        <mxCell id="M8xaA3jgXzXwJ5VbGbtO-4" value="+ field: type" style="text;strokeColor=none;fillColor=none;align=left;verticalAlign=top;spacingLeft=4;spacingRight=4;overflow=hidden;rotatable=0;points=[[0,0.5],[1,0.5]];portConstraint=eastwest;" parent="M8xaA3jgXzXwJ5VbGbtO-3" vertex="1">
          <mxGeometry y="26" width="160" height="26" as="geometry" />
        </mxCell>
        <mxCell id="M8xaA3jgXzXwJ5VbGbtO-5" value="" style="line;strokeWidth=1;fillColor=none;align=left;verticalAlign=middle;spacingTop=-1;spacingLeft=3;spacingRight=3;rotatable=0;labelPosition=right;points=[];portConstraint=eastwest;" parent="M8xaA3jgXzXwJ5VbGbtO-3" vertex="1">
          <mxGeometry y="52" width="160" height="8" as="geometry" />
        </mxCell>
        <mxCell id="M8xaA3jgXzXwJ5VbGbtO-6" value="+ method(type): type" style="text;strokeColor=none;fillColor=none;align=left;verticalAlign=top;spacingLeft=4;spacingRight=4;overflow=hidden;rotatable=0;points=[[0,0.5],[1,0.5]];portConstraint=eastwest;" parent="M8xaA3jgXzXwJ5VbGbtO-3" vertex="1">
          <mxGeometry y="60" width="160" height="26" as="geometry" />
        </mxCell>
        <mxCell id="waAP4hCyBEqmokX73J-E-1" value="" style="endArrow=block;endSize=16;endFill=0;html=1;rounded=0;" parent="1" source="zvh0BNXRaEqvuYk_ANei-10" target="zvh0BNXRaEqvuYk_ANei-19" edge="1">
          <mxGeometry width="160" relative="1" as="geometry">
            <mxPoint x="170" y="720" as="sourcePoint" />
            <mxPoint x="170" y="646" as="targetPoint" />
            <Array as="points" />
          </mxGeometry>
        </mxCell>
        <mxCell id="waAP4hCyBEqmokX73J-E-2" value="" style="endArrow=diamondThin;endFill=1;endSize=24;html=1;rounded=0;" parent="1" source="zvh0BNXRaEqvuYk_ANei-19" target="a4NBhfSJMRjFoHTR3aRK-17" edge="1">
          <mxGeometry width="160" relative="1" as="geometry">
            <mxPoint x="270" y="520" as="sourcePoint" />
            <mxPoint x="170" y="520" as="targetPoint" />
            <Array as="points" />
          </mxGeometry>
        </mxCell>
      </root>
    </mxGraphModel>
  </diagram>
</mxfile>
